<svg xmlns="http://www.w3.org/2000/svg" height="24px" viewBox="0 -960 960 960" width="24px" fill="#000000"><path d="M484-119q-75.09 0-141.57-28.6-66.48-28.6-116.36-78.47-49.87-49.88-78.47-116.36Q119-408.91 119-484q0-117 66.5-210.5T362-825q4 93 34.5 179.5T493-493q66 66 152.5 96.5T825-365q-37 111-130.5 178.5T484-119Zm0-54q79 0 147.5-37.5T743-314.28q-82-11.03-155.5-47.15Q514-397.56 455-456.78 396-516 359.5-589T313-744q-66 43-103 112t-37 148q0 129.58 90.71 220.29Q354.42-173 484-173Zm-29-284Z"/></svg>