<svg xmlns="http://www.w3.org/2000/svg" height="24px" viewBox="0 -960 960 960" width="24px" fill="#000000"><path d="M480.17-100q-78.81 0-148.21-29.93-69.4-29.92-120.73-81.22-51.34-51.3-81.28-120.65Q100-401.15 100-480q0-78.6 29-147.3Q158-696 211-749l39 39q-44.95 44.55-70.47 102.96Q154-548.63 154-480.33 154-343 248.74-248.5 343.49-154 480-154t231.26-94.74Q806-343.49 806-480q0-69-25.53-127.22Q754.95-665.45 710-710l39-39q53 53 82 121.7t29 147.73q0 78.09-29.39 147.39-29.39 69.3-80.84 120.73-51.44 51.44-120.98 81.45-69.55 30-148.62 30ZM453-427v-433h54v433h-54Z"/></svg>